Planet of the Apes 1968 BluRay 1080p DTS x264

Encoded by Tequila-Bob a.k.a.bobnjeff a.k.a.LoNeWoLf

Genres:Adventure | Mystery | Sci-Fi 
 
http://www.imdb.com/title/tt0063442/

Release Date:3 April 1968 (USA)

Rated: PG (Parental Guidance Suggested)

Storyline
Taylor and two other astronauts come out of deep hibernation to find that their ship has crashed. Escaping with little more than clothes they find that they have landed on a planet where men are pre-lingual and uncivilized while apes have learned speech and technology. Taylor is captured and taken to the city of the apes after damaging his throat so that he is silent and cannot communicate with the apes.


Format : Matroska 
File size : 8.04 GiB 
Duration : 1h 52mn 
Overall bit rate : 10.3 Mbps 
Encoded date : UTC 2010-11-20 13:08:02 
Writing application : mkvmerge v4.4.0 ('Die Wiederkehr') built on Oct 31 2010 21:52:48 
Writing library : libebml v1.0.0 + libmatroska v1.0.0 

Video 
ID : 1 
Format : AVC 
Format/Info : Advanced Video Codec 
Format profile : High@L4.1 
Format settings, CABAC : Yes 
Format settings, ReFrames : 7 frames 
Muxing mode : Container profile=Unknown@4.1 
Codec ID : V_MPEG4/ISO/AVC 
Duration : 1h 52mn 
Bit rate : 8 651 Kbps 
Width : 1 920 pixels 
Height : 816 pixels 
Display aspect ratio : 2.35:1 
Frame rate : 23.976 fps 
Color space : YUV 
Chroma subsampling : 4:2:0 
Bit depth : 8 bits 
Scan type : Progressive 
Bits/(Pixel*Frame) : 0.230 
Stream size : 6.70 GiB (83%) 
Writing library : x264 core 98 r1649 c54c47d 
Encoding settings : cabac=1 / ref=8 / deblock=1:0:0 / analyse=0x3:0x133 / me=umh / subme=7 / psy=1 / psy_rd=1.00:0.15 / mixed_ref=1 / me_range=24 / chroma_me=0 / trellis=1 / 8x8dct=1 / cqm=0 / deadzone=21,11 / fast_pskip=1 / chroma_qp_offset=-3 / threads=6 / sliced_threads=0 / nr=0 / decimate=0 / interlaced=0 / constrained_intra=0 / bframes=5 / b_pyramid=1 / b_adapt=1 / b_bias=0 / direct=1 / weightb=1 / weightp=2 / keyint=250 / keyint_min=25 / scenecut=40 / intra_refresh=0 / rc_lookahead=50 / rc=2pass / mbtree=1 / bitrate=8651 / ratetol=1.0 / qcomp=0.60 / qpmin=10 / qpmax=51 / qpstep=4 / cplxblur=20.0 / qblur=0.5 / ip_ratio=1.40 / aq=1:1.50 
Language : English 

Audio 
ID : 2 
Format : DTS 
Format/Info : Digital Theater Systems 
Codec ID : A_DTS 
Duration : 1h 52mn 
Bit rate mode : Constant 
Bit rate : 1 510 Kbps 
Channel(s) : 6 channels 
Channel positions : Front: L C R, Side: L R, LFE 
Sampling rate : 48.0 KHz 
Bit depth : 24 bits 
Video delay : 10ms 
Stream size : 1.18 GiB (15%) 
Title : 3/2+1 
Language : English 

Text 
Language : English 
Language : Spanish 
Language : Chinese 
Language : Chinese 
Language : Korean 
Language : Spanish 
Language : Spanish 
Language : French 
Language : French 
Language : English 

Menu         : Chapters 27

[img]http://torrent-stats.info/0498/4c1d8a0.png[/img]


Click on link below to view 1920x816 PNG files

 
http://s1015.photobucket.com/albums/af279/tequila-bob/PlanetOf%20TheApes/

